<svg xmlns="http://www.w3.org/2000/svg" viewBox="0 0 360 280">
  <!-- Background -->
  <rect x="0" y="0" width="360" height="280" fill="#f0f0f0"/>
  
  <!-- Title -->
  <text x="180" y="30" font-size="20" text-anchor="middle" fill="black">I – IV – V (G – C – D) G Major progression</text>

  <!-- G major (I) -->
  <g transform="translate(0,40)">
    <g stroke="black" stroke-width="1">
      <!-- C -->
      <rect x="0" y="0" width="16" height="190" fill="white"/><text x="2" y="205" font-size="10">C</text>
      <!-- D - Fifth -->
      <rect x="17" y="0" width="16" height="190" fill="#ff9999"/><text x="19" y="205" font-size="10">D</text>
      <!-- E -->
      <rect x="34" y="0" width="16" height="190" fill="white"/><text x="36" y="205" font-size="10">E</text>
      <!-- F# -->
      <rect x="51" y="0" width="16" height="190" fill="white"/><text x="53" y="205" font-size="10">F</text>
      <!-- G - Root -->
      <rect x="68" y="0" width="16" height="190" fill="#ff9999"/><text x="70" y="205" font-size="10">G</text>
      <!-- A -->
      <rect x="85" y="0" width="16" height="190" fill="white"/><text x="87" y="205" font-size="10">A</text>
      <!-- B - Third -->
      <rect x="102" y="0" width="16" height="190" fill="#ff9999"/><text x="104" y="205" font-size="10">B</text>
    </g>
    <!-- Black keys -->
    <g fill="black">
      <rect x="11" y="0" width="12" height="120"/><text x="12" y="60" font-size="8" fill="white">C♯</text>
      <rect x="28" y="0" width="12" height="120"/><text x="29" y="60" font-size="8" fill="white">D♯</text>
      <rect x="62" y="0" width="12" height="120"/><text x="63" y="60" font-size="8" fill="white">F♯</text>
      <rect x="79" y="0" width="12" height="120"/><text x="80" y="60" font-size="8" fill="white">G♯</text>
      <rect x="96" y="0" width="12" height="120"/><text x="97" y="60" font-size="8" fill="white">A♯</text>
    </g>
  </g>
  <!-- Label for G major -->
  <text x="60" y="260" font-size="16" text-anchor="middle" fill="black">G major (I)</text>

  <!-- C major (IV) -->
  <g transform="translate(120,40)">
    <g stroke="black" stroke-width="1">
      <!-- C - Root -->
      <rect x="0" y="0" width="16" height="190" fill="#ff9999"/><text x="2" y="205" font-size="10">C</text>
      <!-- D -->
      <rect x="17" y="0" width="16" height="190" fill="white"/><text x="19" y="205" font-size="10">D</text>
      <!-- E - Third -->
      <rect x="34" y="0" width="16" height="190" fill="#ff9999"/><text x="36" y="205" font-size="10">E</text>
      <!-- F -->
      <rect x="51" y="0" width="16" height="190" fill="white"/><text x="53" y="205" font-size="10">F</text>
      <!-- G - Fifth -->
      <rect x="68" y="0" width="16" height="190" fill="#ff9999"/><text x="70" y="205" font-size="10">G</text>
      <!-- A -->
      <rect x="85" y="0" width="16" height="190" fill="white"/><text x="87" y="205" font-size="10">A</text>
      <!-- B -->
      <rect x="102" y="0" width="16" height="190" fill="white"/><text x="104" y="205" font-size="10">B</text>
    </g>
    <!-- Black keys -->
    <g fill="black">
      <rect x="11" y="0" width="12" height="120"/><text x="12" y="60" font-size="8" fill="white">C♯</text>
      <rect x="28" y="0" width="12" height="120"/><text x="29" y="60" font-size="8" fill="white">D♯</text>
      <rect x="62" y="0" width="12" height="120"/><text x="63" y="60" font-size="8" fill="white">F♯</text>
      <rect x="79" y="0" width="12" height="120"/><text x="80" y="60" font-size="8" fill="white">G♯</text>
      <rect x="96" y="0" width="12" height="120"/><text x="97" y="60" font-size="8" fill="white">A♯</text>
    </g>
  </g>
  <!-- Label for C major -->
  <text x="180" y="260" font-size="16" text-anchor="middle" fill="black">C major (IV)</text>

  <!-- D major (V) -->
  <g transform="translate(240,40)">
    <g stroke="black" stroke-width="1">
      <!-- C# -->
      <rect x="0" y="0" width="16" height="190" fill="white"/><text x="2" y="205" font-size="10">C</text>
      <!-- D - Root -->
      <rect x="17" y="0" width="16" height="190" fill="#ff9999"/><text x="19" y="205" font-size="10">D</text>
      <!-- E -->
      <rect x="34" y="0" width="16" height="190" fill="white"/><text x="36" y="205" font-size="10">E</text>
      <!-- F# - Third -->
      <rect x="51" y="0" width="16" height="190" fill="white"/><text x="53" y="205" font-size="10">F</text>
      <!-- G -->
      <rect x="68" y="0" width="16" height="190" fill="white"/><text x="70" y="205" font-size="10">G</text>
      <!-- A - Fifth -->
      <rect x="85" y="0" width="16" height="190" fill="#ff9999"/><text x="87" y="205" font-size="10">A</text>
      <!-- B -->
      <rect x="102" y="0" width="16" height="190" fill="white"/><text x="104" y="205" font-size="10">B</text>
    </g>
    <!-- Black keys -->
    <g fill="black">
      <rect x="11" y="0" width="12" height="120"/><text x="12" y="60" font-size="8" fill="white">C♯</text>
      <rect x="28" y="0" width="12" height="120"/><text x="29" y="60" font-size="8" fill="white">D♯</text>
      <rect x="62" y="0" width="12" height="120" fill="#ff9999"/><text x="63" y="60" font-size="8" fill="white">F♯</text>
      <rect x="79" y="0" width="12" height="120"/><text x="80" y="60" font-size="8" fill="white">G♯</text>
      <rect x="96" y="0" width="12" height="120"/><text x="97" y="60" font-size="8" fill="white">A♯</text>
    </g>
  </g>
  <!-- Label for D major -->
  <text x="300" y="260" font-size="16" text-anchor="middle" fill="black">D major (V)</text>
</svg>